# xmcd
#
# Track frame offsets:
#	183
#	49808
#	72583
#	86995
#	97895
#	116158
#	128670
#	171858
#	190233
#	212558
#	229383
#	242208
#
# Disc length: 3442
#
# Revision: 2
# Processed by: cddbd v1.5.1PL0 Copyright (c) Steve Scherf et al.
# Submitted via: CDex 1.50beta9
# Normalized: r0:DSETVAR1,TDELIM( - ),TSWAP
#
DISCID=b00d700c
DTITLE=Various Artist - Golden Jazz Best 2 Disk2
DYEAR=1900
DGENRE=Jazz
TTITLE0=Cannonball Adderley - Autumn Leaves
TTITLE1=Oscar Peterson - The Shadow Of Your Smile
TTITLE2=Wes Montgomery - Tear It Down
TTITLE3=Anita O'day - Taking A Chance On Love
TTITLE4=Kenny Burrell - Midnight Blue
TTITLE5=Disparaissent - Des Femmes
TTITLE6=Sonny Clark - Deep Night
TTITLE7=Miles Davis - It Never Entered My Mind
TTITLE8=Bill Evans - My Foolish Heart
TTITLE9=Jay Jay Johnson - Capri
TTITLE10=M.Davis Quintet - Ascenseur Pour L'echafaud
TTITLE11=4 Freshmen And 5 Trombones - Angel Eyes
EXTD=
EXTT0=
EXTT1=
EXTT2=
EXTT3=
EXTT4=
EXTT5=
EXTT6=
EXTT7=
EXTT8=
EXTT9=
EXTT10=
EXTT11=
PLAYORDER=
